<?xml version="1.0" encoding="utf-8"?>
<!-- Generator: Adobe Illustrator 16.0.4, SVG Export Plug-In . SVG Version: 6.00 Build 0)  -->
<svg version="1.2" baseProfile="tiny" id="Layer_1" xmlns="http://www.w3.org/2000/svg" xmlns:xlink="http://www.w3.org/1999/xlink"
	 x="0px" y="0px" width="20px" height="15px" viewBox="0 0 20 15" xml:space="preserve">
<g>
	<path fill="#DB908A" d="M0.27,5.586c0-0.186,0-0.374,0-0.559c0.345-0.284,0.65-0.668,1.043-0.832
		c2.091-0.863,4.202-1.686,6.315-2.497C9.151,1.111,10.69,0.564,12.224,0c0.23,0,0.464,0,0.696,0
		c0.235,0.249,0.54,0.462,0.696,0.753c0.776,1.449,1.538,2.91,2.26,4.387c0.468,0.958,0.904,1.938,1.271,2.938
		c0.355,0.969,0.153,1.48-0.768,1.947c-0.76,0.384-1.557,0.729-2.375,0.952c-2.54,0.697-5.098,1.321-7.647,1.987
		c-0.25,0.063-0.479,0.208-0.718,0.316c0.024,0.083,0.049,0.167,0.073,0.25c0.253,0,0.52,0.05,0.759-0.007
		c2.352-0.584,4.715-1.142,7.048-1.8c1.126-0.318,2.235-0.761,3.284-1.284c1.034-0.514,1.282-1.293,0.956-2.4
		c-0.11-0.376-0.273-0.742-0.448-1.094c-0.797-1.6-1.605-3.196-2.408-4.791c-0.11-0.22-0.208-0.448-0.324-0.699
		c0.638-0.335,1.043-0.042,1.361,0.376c0.265,0.346,0.476,0.743,0.667,1.138c1.047,2.173,2.082,4.352,3.121,6.527
		c0,0.233,0,0.465,0,0.697c-0.474,0.974-1.266,1.582-2.269,1.899c-3.612,1.137-7.217,2.303-10.984,2.845
		c-1.321,0.189-1.72,0-2.345-1.174C3.71,12.967,3.82,12.5,4.62,12.116c0.558-0.269,1.154-0.476,1.753-0.641
		c2.76-0.761,5.524-1.496,8.289-2.244c0.243-0.065,0.487-0.145,0.713-0.251c0.077-0.036,0.151-0.198,0.131-0.277
		c-0.022-0.084-0.159-0.328-0.246-0.328c-0.181,0.002-0.36,0.059-0.537,0.107c-2.362,0.644-4.726,1.276-7.081,1.944
		c-1.083,0.308-2.196,0.587-3.207,1.07c-1.545,0.74-1.512,0.946-2.146-0.667c-0.111-0.28-0.213-0.563-0.323-0.844
		C1.403,8.519,0.837,7.052,0.27,5.586z"/>
</g>
</svg>
