<?xml version="1.0" encoding="utf-8"?>
<!-- Generator: Adobe Illustrator 16.0.4, SVG Export Plug-In . SVG Version: 6.00 Build 0)  -->
<svg version="1.2" baseProfile="tiny" id="Layer_1" xmlns="http://www.w3.org/2000/svg" xmlns:xlink="http://www.w3.org/1999/xlink"
	 x="0px" y="0px" width="20px" height="15px" viewBox="0 0 20 15" xml:space="preserve">
<g>
	<path fill-rule="evenodd" fill="#993B33" d="M4.675,13.491c0-2.311,0-4.606,0-6.963C4.266,6.717,3.9,6.887,3.507,7.066
		C2.679,5.771,1.86,4.488,1.027,3.188C1.08,3.146,1.118,3.104,1.165,3.078C2.291,2.457,3.39,1.78,4.55,1.234
		c0.703-0.33,1.499-0.461,2.259-0.681c0.561,1.605,1.623,2.543,3.322,2.488c1.567-0.055,2.544-0.976,3.029-2.424
		c2.206,0.218,3.904,1.571,5.834,2.539C18.153,4.469,17.33,5.76,16.493,7.07c-0.385-0.183-0.751-0.356-1.158-0.547
		c0,2.345,0,4.641,0,6.968C11.783,13.491,8.254,13.491,4.675,13.491z"/>
	<path fill-rule="evenodd" fill="#BF5C53" d="M15.313,14.022c0,0.197,0,0.36,0,0.543c-3.544,0-7.073,0-10.624,0
		c0-0.183,0-0.353,0-0.543C8.232,14.022,11.759,14.022,15.313,14.022z"/>
	<path fill-rule="evenodd" fill="#BF5C53" d="M7.439,0.479C7.703,0.395,7.853,0.44,8.006,0.682c0.934,1.463,3.021,1.464,3.988,0.02
		c0.191-0.288,0.191-0.288,0.564-0.247c-0.094,0.969-1.276,1.906-2.463,1.952C8.874,2.455,7.654,1.575,7.439,0.479z"/>
	<path fill-rule="evenodd" fill="#BF5C53" d="M0.56,3.414c0.836,1.308,1.65,2.582,2.481,3.877C2.857,7.385,2.69,7.466,2.482,7.571
		C1.66,6.298,0.843,5.034,0,3.729C0.19,3.622,0.359,3.529,0.56,3.414z"/>
	<path fill-rule="evenodd" fill="#BF5C53" d="M16.959,7.295c0.84-1.312,1.658-2.591,2.482-3.879C19.633,3.522,19.795,3.612,20,3.727
		c-0.828,1.285-1.646,2.554-2.476,3.844C17.329,7.476,17.163,7.394,16.959,7.295z"/>
</g>
</svg>
