<?xml version="1.0" encoding="utf-8"?>
<!-- Generator: Adobe Illustrator 16.0.4, SVG Export Plug-In . SVG Version: 6.00 Build 0)  -->
<svg version="1.2" baseProfile="tiny" id="Layer_1" xmlns="http://www.w3.org/2000/svg" xmlns:xlink="http://www.w3.org/1999/xlink"
	 x="0px" y="0px" width="20px" height="15px" viewBox="0 0 20 15" xml:space="preserve">
<g>
	<path fill="#70B14A" d="M17.389,11.31c-0.01,0.897,0.235,1.253,0.882,1.273c0.693,0.023,0.959-0.301,0.916-1.281
		c-0.068-1.531-0.18-3.065-0.283-4.596c-0.032-0.48-0.025-0.887,0.429-1.292c0.853-0.763,0.867-2.188,0.167-3.066
		c-0.677-0.844-1.711-0.849-2.378-0.011c-0.683,0.863-0.588,2.269,0.126,3.101c0.245,0.286,0.439,0.706,0.43,1.06
		C17.624,8.103,17.493,9.706,17.389,11.31z M0.768,10.383c0,0.292,0,0.845,0,1.396c0,0.507,0.228,0.833,0.838,0.835
		c0.639,0.002,0.911-0.316,0.882-0.868c-0.085-1.724-0.165-3.449-0.279-5.172C2.18,6.143,2.183,5.817,2.646,5.529
		c0.262-0.164,0.46-0.547,0.489-0.846c0.07-0.738,0.042-1.488,0.017-2.23c-0.005-0.152-0.167-0.3-0.257-0.45
		c-0.106,0.164-0.288,0.321-0.3,0.491C2.556,3.021,2.602,3.551,2.565,4.077C2.553,4.248,2.388,4.409,2.294,4.575
		C2.163,4.405,1.942,4.246,1.921,4.064C1.865,3.614,1.933,3.15,1.88,2.699C1.853,2.458,1.681,2.232,1.574,2
		C1.485,2.221,1.337,2.438,1.319,2.665C1.279,3.142,1.332,3.626,1.291,4.104C1.276,4.267,1.096,4.417,0.99,4.575
		C0.872,4.421,0.661,4.271,0.649,4.11C0.6,3.537,0.636,2.959,0.603,2.383c-0.01-0.13-0.167-0.257-0.255-0.385
		c-0.106,0.134-0.293,0.268-0.3,0.405C0.014,3.051-0.044,3.71,0.057,4.345c0.073,0.437,0.4,0.836,0.601,1.257
		c0.123,0.256,0.327,0.523,0.32,0.783C0.947,7.63,0.852,8.876,0.768,10.383z"/>
	<path fill="#A6CA88" d="M16.228,7.682c0.037-3.213-2.649-5.82-6.17-5.81C6.465,1.883,3.792,4.287,3.707,7.555
		c-0.078,3.071,2.782,5.697,6.134,5.733C13.39,13.324,16.191,10.867,16.228,7.682z"/>
</g>
</svg>
