<?xml version="1.0" encoding="utf-8"?>
<!-- Generator: Adobe Illustrator 16.0.4, SVG Export Plug-In . SVG Version: 6.00 Build 0)  -->
<svg version="1.2" baseProfile="tiny" id="Layer_1" xmlns="http://www.w3.org/2000/svg" xmlns:xlink="http://www.w3.org/1999/xlink"
	 x="0px" y="0px" width="20px" height="15px" viewBox="0 0 20 15" xml:space="preserve">
<g>
	<g>
		<g>
			<path fill="#4CA4DB" d="M4.416,0.412C4.413,0.413,4.409,0.415,4.409,0.416C2.491,1.384,1.718,3.729,2.681,5.653
				c0.214,0.423,0.489,0.79,0.813,1.095l0,0L9.848,15C8.658,12.669,5.801,3.212,4.416,0.412z"/>
			<path fill="#4CA4DB" d="M4.416,0.412C5.801,3.212,8.658,12.669,9.848,15l-0.003-3.716l0.166-7.826l0,0
				C9.96,3.014,9.832,2.572,9.621,2.149C8.66,0.228,6.332-0.548,4.416,0.412z"/>
		</g>
	</g>
	<g>
		<g>
			<path fill="#3C80C2" d="M15.76,0.7c-0.002-0.001-0.005-0.003-0.007-0.006c-1.871-1.055-4.236-0.389-5.288,1.49
				c-0.23,0.412-0.38,0.846-0.45,1.286l0,0l-0.194,7.803C11.079,8.979,14.223,3.416,15.76,0.7z"/>
			<path fill="#3C80C2" d="M15.76,0.7c-1.537,2.716-4.681,8.279-5.939,10.574L9.848,15l6.525-7.938l0,0
				c0.337-0.29,0.63-0.644,0.86-1.056C18.284,4.133,17.624,1.758,15.76,0.7z"/>
		</g>
		<g>
			<path fill="#3F86B2" d="M15.76,0.7c-0.002-0.001-0.005-0.003-0.007-0.006c-1.871-1.055-4.236-0.389-5.288,1.49
				c-0.23,0.412-0.38,0.846-0.45,1.286l0,0l-0.194,7.803C11.079,8.979,14.223,3.416,15.76,0.7z"/>
			<path fill="#3F86B2" d="M15.76,0.7c-1.537,2.716-4.681,8.279-5.939,10.574L9.848,15l6.525-7.938l0,0
				c0.337-0.29,0.63-0.644,0.86-1.056C18.284,4.133,17.624,1.758,15.76,0.7z"/>
		</g>
	</g>
</g>
</svg>
