<?xml version="1.0" encoding="utf-8"?>
<!-- Generator: Adobe Illustrator 16.0.4, SVG Export Plug-In . SVG Version: 6.00 Build 0)  -->
<svg version="1.2" baseProfile="tiny" id="Layer_1" xmlns="http://www.w3.org/2000/svg" xmlns:xlink="http://www.w3.org/1999/xlink"
	 x="0px" y="0px" width="20px" height="15px" viewBox="0 0 20 15" xml:space="preserve">
<g>
	<g>
		<path fill-rule="evenodd" fill="#5758A3" d="M2.025,9.922c0.004-0.043,0.007-0.085,0.013-0.126
			c0.288-2.599,2.853-6.562,5.896-4.98c1.875,0.975,3.781,6.742,0.851,7.547c-0.805,0.221-1.565-0.35-2.34-0.243
			c-0.863,0.117-1.285,0.908-2.08,1.086C2.229,13.681,1.876,11.523,2.025,9.922z"/>
		<path fill-rule="evenodd" fill="#5758A3" d="M0.604,3.901c-0.647-1.938,1.895-2.219,2.482-0.506
			c0.22,0.641,0.206,1.746-0.331,2.164C1.824,6.283,0.872,4.707,0.604,3.901z"/>
		<path fill-rule="evenodd" fill="#5758A3" d="M10.121,2.715c1.539-1.13,2.51,1.073,1.155,2.083
			c-0.508,0.377-1.494,0.679-2.018,0.316C8.351,4.485,9.481,3.185,10.121,2.715z"/>
		<path fill-rule="evenodd" fill="#5758A3" d="M2.965,1.647c-0.143-2.144,2.532-1.932,2.83-0.09c0.122,0.742-0.1,1.951-0.765,2.307
			C3.953,4.441,3.053,2.959,2.965,1.647z"/>
		<path fill-rule="evenodd" fill="#5758A3" d="M6.716,1.117c0.583-2.066,3.031-0.964,2.696,0.87
			c-0.133,0.74-0.746,1.806-1.492,1.915C6.711,4.083,6.36,2.382,6.716,1.117z"/>
	</g>
	<g>
		<path fill-rule="evenodd" fill="#7877B6" d="M12.387,10.345c3.199-1.815,4.701,1.027,4.796,2.769
			c0.114,2.117-1.94,2.29-2.68,1.316c-0.586-0.77-0.212-1.545-1.403-1.37c-0.565,0.084-1.44,0.023-1.732-0.636
			C11.011,11.625,11.698,10.737,12.387,10.345z"/>
		<path fill-rule="evenodd" fill="#7877B6" d="M13.253,7.585c0.203-1.397,1.86-0.771,1.687,0.468
			c-0.064,0.463-0.418,1.142-0.879,1.23C13.265,9.437,13.168,8.167,13.253,7.585z"/>
		<path fill-rule="evenodd" fill="#7877B6" d="M18.641,10.767c1.317-0.035,1.007,1.601-0.159,1.641
			c-0.436,0.015-1.115-0.204-1.271-0.619C16.942,11.073,18.095,10.782,18.641,10.767z"/>
		<path fill-rule="evenodd" fill="#7877B6" d="M15.345,7.617c0.758-1.274,2.194-0.098,1.643,1.067
			c-0.222,0.469-0.82,1.069-1.337,1.008C14.811,9.595,14.88,8.397,15.345,7.617z"/>
		<path fill-rule="evenodd" fill="#7877B6" d="M17.36,8.617c1.214-0.846,2.039,0.821,1.06,1.653
			c-0.396,0.336-1.186,0.634-1.634,0.367C16.062,10.196,16.617,9.135,17.36,8.617z"/>
	</g>
</g>
</svg>
